HIERARCHY
ROOT simHips
{
  OFFSET 95.7435 99.7512 88.883
  CHANNELS 6 Xposition Yposition Zposition Zrotation Xrotation Yrotation
  JOINT simSpine
  {
    OFFSET -0.000355721 21.3001 -0.016921
    CHANNELS 3 Zrotation Xrotation Yrotation
    JOINT simLeftArm
    {
      OFFSET 13.5181 21.3012 0
      CHANNELS 3 Zrotation Xrotation Yrotation
      JOINT simLeftForeArm
      {
        OFFSET 24.5783 0 0
        CHANNELS 3 Zrotation Xrotation Yrotation
        JOINT simLeftHand
        {
          OFFSET 24.5783 0 0
          CHANNELS 3 Zrotation Xrotation Yrotation
          End Site
          {
            OFFSET 7.32568 1.52588e-05 0.0169305
          }
        }
      }
    }
    JOINT simHead
    {
      OFFSET 0 27.4458 -0.00489235
      CHANNELS 3 Zrotation Xrotation Yrotation
      End Site
      {
        OFFSET 0 0 0
      }
    }
    JOINT simRightArm
    {
      OFFSET -13.5174 21.3012 0
      CHANNELS 3 Zrotation Xrotation Yrotation
      JOINT simRightForeArm
      {
        OFFSET -24.5783 0 0
        CHANNELS 3 Zrotation Xrotation Yrotation
        JOINT simRightHand
        {
          OFFSET -24.5783 0 0
          CHANNELS 3 Zrotation Xrotation Yrotation
          End Site
          {
            OFFSET -7.32568 1.52588e-05 0.0169305
          }
        }
      }
    }
  }
  JOINT simRightUpLeg
  {
    OFFSET -8.44614 -9.41038 0.835684
    CHANNELS 3 Zrotation Xrotation Yrotation
    JOINT simRightLeg
    {
      OFFSET 0 -40.9639 0
      CHANNELS 3 Zrotation Xrotation Yrotation
      JOINT simRightFoot
      {
        OFFSET 0 -40.9639 0
        CHANNELS 3 Zrotation Xrotation Yrotation
        End Site
        {
          OFFSET 0.50614 -9.67405 14.6709
        }
      }
    }
  }
  JOINT simLeftUpLeg
  {
    OFFSET 8.44614 -9.41038 0.835684
    CHANNELS 3 Zrotation Xrotation Yrotation
    JOINT simLeftLeg
    {
      OFFSET 0 -40.9639 0
      CHANNELS 3 Zrotation Xrotation Yrotation
      JOINT simLeftFoot
      {
        OFFSET 0 -40.9639 0
        CHANNELS 3 Zrotation Xrotation Yrotation
        End Site
        {
          OFFSET -0.50614 -9.67405 14.6709
        }
      }
    }
  }
}
MOTION
Frames:	14
Frame Time:	0.0333333
75.4923 99.5896 140.523 17.5875 13.8228 -160.003 21.1776 52.7933 -3.67967 -74.9342 31.8814 49.0785 22.3919 -8.19126 -51.906 26.0592 -2.99958 5.56243 -2.13087 -7.09507 24.8365 -4.59337 5.23372 1.86229 -29.3358 -15.912 52.3237 -2.71808 -32.3341 6.11473 -122.846 -66.7552 -116.741 143.569 69.5599 -133.331 5.93486 -11.4397 -3.43999 36.0007 -14.5898 19.0305 -13.6073 33.318 4.83822 4.513 -1.50867 1.18782 
76.2333 98.8451 142.822 19.362 11.4067 -165.833 20.9701 48.2532 -0.541945 -86.336 15.1656 53.713 25.5628 -12.0466 -62.0009 20.4831 1.72057 4.25563 -5.5685 -6.01737 29.6791 3.94942 5.58962 6.35458 -29.7867 -16.5263 53.398 -1.93744 -33.0285 7.88145 -99.6085 -68.6437 -88.0732 140.645 70.8861 -130.503 5.84989 -6.22895 -4.26035 34.2993 -12.6907 9.5941 -13.3797 32.8652 4.69083 3.00544 -9.12772 1.7674 
77.7347 97.8689 144.222 19.0376 8.93026 -168.712 19.8098 42.3766 1.43315 -92.2545 1.62239 53.3823 27.1674 -14.6489 -68.1333 16.8948 7.1994 3.0802 -7.82326 -4.64358 33.6613 16.3272 11.6516 4.96889 -30.5868 -17.6735 55.3639 -2.20215 -31.4494 7.5771 -69.0542 -65.1961 -50.4596 132.615 73.587 -122.734 6.86173 -0.519958 -5.1811 32.4728 -14.2285 5.62252 -12.7206 31.5398 4.29017 2.21026 -12.6037 8.99314 
80.983 96.8548 145.238 14.6171 8.19304 -167.803 15.4208 38.1697 3.97721 -91.7052 0.8384 48.9917 28.2654 -16.8706 -73.1041 12.6641 7.84956 3.29806 -8.24821 -5.31475 33.4719 33.9695 18.1183 -4.73663 -31.2923 -18.7557 57.1787 -0.534134 -33.6985 7.70419 -48.3813 -52.7887 -21.0201 114.575 76.8326 -105.116 8.27097 4.68761 -5.17399 29.6972 -17.5592 4.38893 -14.1901 34.42 5.14034 2.22817 -10.3755 10.8066 
85.0963 95.1974 145.688 10.1041 7.06292 -164.788 11.3301 32.2078 5.64017 -86.2419 10.2362 44.3341 29.3715 -19.787 -79.3968 11.7515 5.60464 3.39606 -8.26119 -2.96982 30.0655 52.8863 23.1291 -14.669 -31.0117 -18.3175 56.447 4.40447 -36.8137 8.109 -40.2477 -35.4152 -9.01209 69.4517 77.5458 -60.8049 8.63771 11.3287 -4.37164 28.6387 -20.2656 7.10176 -15.2037 36.2775 5.70893 -0.976914 -11.6229 6.11736 
89.5419 92.8848 146.152 6.71986 5.86694 -162.308 8.06399 26.4309 6.44299 -75.3346 22.6439 34.0103 30.0432 -22.3005 -84.7042 10.1384 -2.64202 4.23921 -6.55097 0.0336733 26.7593 64.2643 26.9619 -16.7658 -31.1597 -18.5464 56.8288 8.93935 -34.3352 9.61978 -35.6149 -18.7023 -7.0007 28.5011 67.316 -21.0166 14.1422 12.3077 -5.01139 30.6914 -24.0936 12.5459 -17.6778 40.4282 7.27469 -4.75009 -12.1433 1.24006 
93.6484 89.5885 147.73 4.06181 4.57234 -163.091 6.12758 22.8016 7.93495 -57.5788 30.2175 13.5537 30.3675 -24.0869 -88.4544 11.8258 -5.53503 3.49592 -5.80103 0.0759299 26.924 61.7711 32.1215 -8.11974 -33.1071 -21.9108 62.2728 13.323 -33.6251 13.6407 -32.8414 -8.70221 -7.19687 15.7604 54.4048 -9.29802 18.8265 11.4498 -4.45698 34.0458 -28.0931 17.9626 -21.3679 45.6604 9.90024 -5.47085 -11.7571 -0.284861 
97.0227 85.604 150.983 1.00554 3.43226 -167.583 4.8572 22.73 10.5177 -40.2595 24.6312 -11.5589 30.4001 -24.3166 -88.9368 15.4626 -8.00269 1.81602 -7.64491 -2.2805 29.4631 44.9261 32.4759 12.5712 -35.1073 -26.3495 69.1268 13.0406 -31.8842 15.3094 -32.8012 -7.02116 -3.11559 14.0351 51.2781 -7.9617 23.6119 -14.794 -2.63623 37.1861 -31.6656 22.6119 -26.2222 51.1184 13.6742 -4.21451 -10.7598 0.839909 
99.6384 81.9259 155.251 -1.81521 1.8545 -172.159 4.9588 25.7483 10.3851 -36.5534 11.8339 -27.645 30.3423 -23.9197 -88.1034 19.1868 -6.89139 0.984876 -10.6966 -8.41596 34.2932 27.9516 24.2651 35.9991 -36.0357 -28.8735 72.9374 10.2088 -31.0063 14.6317 -35.7118 -11.9144 -3.41048 13.6967 50.628 -7.84677 24.4257 -27.6273 2.97557 40.5662 -35.6078 27.9775 -30.3785 54.7962 17.0923 -2.26173 -7.33256 2.57714 
101.301 79.3851 159.219 -4.29568 -0.764052 -176.344 4.92117 28.1935 6.53138 -37.1182 7.66796 -34.0464 30.399 -24.3086 -88.9202 21.1367 -10.0853 3.48432 -8.51495 -17.7987 43.0521 21.7059 20.7295 50.7704 -36.5284 -30.8316 75.8835 7.82912 -30.4617 14.1067 -40.5758 -22.6546 -2.64933 18.2531 57.9049 -11.7255 29.9268 -29.2937 9.86381 44.2965 -38.6689 34.2236 -32.3115 56.2547 18.6635 -4.6091 -4.70331 2.72242 
102.456 78.0399 161.919 -4.77771 -1.05326 -178.245 7.06954 31.7685 -0.829463 -32.6607 17.0913 -34.7313 30.3605 -24.0422 -88.3607 18.2919 -11.8 4.23108 -1.02454 -25.0982 53.5183 21.5083 26.3864 54.1392 -36.9383 -32.51 78.4122 6.69832 -29.0137 13.8344 -42.3416 -29.7357 -4.19866 23.7227 63.707 -16.7448 26.0081 -28.0221 7.73058 47.3651 -38.9272 36.0469 -33.7414 57.2448 19.8368 -9.69776 -5.01691 -5.24636 
103.426 77.1451 163.661 -4.66307 -0.500651 -178.71 8.80567 34.2697 -8.52904 -29.321 34.4161 -34.8761 29.5002 -20.205 -80.2844 12.8291 -7.40291 3.07137 8.84366 -28.2606 62.76 28.6739 36.8766 43.8887 -36.8183 -31.9894 77.6267 4.99108 -25.3469 12.4842 -41.7229 -32.3734 -3.1153 26.8774 66.1473 -19.6905 25.8053 -28.9704 6.78112 49.6548 -38.2061 36.0362 -35.6842 58.4841 21.4989 -10.9774 -4.89708 -4.99554 
103.972 76.2755 164.852 -4.67898 -0.0934646 -179.133 9.10965 36.7333 -14.6067 -34.1715 49.4395 -30.6054 28.1063 -16.5176 -72.3267 15.3001 -5.27515 4.03587 16.6452 -30.9154 69.369 41.585 43.6285 25.1013 -35.7487 -28.1495 71.8482 3.61986 -29.3578 8.5771 -41.4805 -34.6926 -2.3186 30.3759 68.3263 -23.0116 24.4625 -29.4528 5.24743 51.0855 -37.9682 34.0106 -40.4699 61.0893 25.7394 -6.62346 -5.2622 1.68387 
104.294 75.2157 165.585 -3.97145 0.337957 -179.55 8.84452 39.333 -19.2736 -55.7298 55.9789 -9.50067 28.5026 -17.4222 -74.3108 14.8608 -7.01704 4.53034 22.3414 -33.6627 71.7479 54.7304 45.3057 5.40965 -34.9284 -25.8902 68.4285 2.0971 -33.1611 6.36987 -40.803 -36.4675 -1.70116 34.2792 70.2687 -26.7297 24.5453 -29.9517 4.54269 52.7461 -38.3189 30.7865 -50.2669 64.9087 34.558 -7.26858 -8.51386 2.67153 
